# xmcd
#
# Track frame offsets:
#	150
#	11480
#	21172
#	32810
#	46277
#	56687
#	69987
#	84705
#	98970
#	110797
#	124802
#	139365
#	152855
#	166532
#	176760
#	191022
#	204157
#	216757
#
# Disc length: 3057 seconds
#
# Revision: 2
# Processed by: cddbd v1.5.1PL0 Copyright (c) Steve Scherf et al.
# Submitted via: EasyCDDAExtractor 4.6.0.1
#
DISCID=fc0bef12
DTITLE=Zhou Xuan - Shi Ji Zhen Cang Ban
DYEAR=1900
DGENRE=Folk
TTITLE0=Tian Ya Ge Nu
TTITLE1=Si Ji Ge
TTITLE2=Jin Shang Yi Duo Hua
TTITLE3=Wu Yue De Feng
TTITLE4=Cai Bin Lang
TTITLE5=Yin Hua
TTITLE6=Kao Hong
TTITLE7=Mai Za Huo
TTITLE8=Long Hua De Tao Hua
TTITLE9=Hua Yang De Nian Hua
TTITLE10=Xiang Lang
TTITLE11=Nan Min Ge
TTITLE12=Yong Yuan De Wei Xiao
TTITLE13=Huang Ye Wu Qiu Feng
TTITLE14=Zang Hua
TTITLE15=Yue Yuan Hua Hao
TTITLE16=Mo Fu Qing Chun
TTITLE17=Ye Shang Hai
EXTD=
EXTT0=
EXTT1=
EXTT2=
EXTT3=
EXTT4=
EXTT5=
EXTT6=
EXTT7=
EXTT8=
EXTT9=
EXTT10=
EXTT11=
EXTT12=
EXTT13=
EXTT14=
EXTT15=
EXTT16=
EXTT17=
PLAYORDER=
